<svg xmlns="http://www.w3.org/2000/svg" viewBox="0 0 68.76 66.62"><defs><style>.cls-1{fill:none;stroke:#fff;stroke-miterlimit:10;}</style></defs><title>photo_icon</title><g id="Capa_2" data-name="Capa 2"><g id="Capa_3" data-name="Capa 3"><path class="cls-1" d="M68.26,11.14q0,15.8,0,31.6c0,7.21-4.52,11.23-12,10.73a39.14,39.14,0,0,0-7.34.11,2.91,2.91,0,0,0-2.24,1.36c-1.62,2.42-3.43,4.73-5,7.21-2.95,4.81-10.85,5.65-14.28.3-1.71-2.66-3.65-5.19-5.44-7.82a2.3,2.3,0,0,0-2.1-1.12c-3.11-.09-6.25.18-9.31,0C4.46,53,.8,50.15.66,43.8.47,35.21.47,26.61.55,18c0-2.64,0-5.29.08-7.93A9,9,0,0,1,4.3,2.76h0A12.68,12.68,0,0,1,11.81.53c7.62-.05,15.25,0,22.87,0S50.06.47,57.75.53A10.17,10.17,0,0,1,67.4,6.44,10.33,10.33,0,0,1,68.26,11.14Z"/></g></g></svg>