<svg xmlns="http://www.w3.org/2000/svg" width="13.426" height="13.426" viewBox="0 0 13.426 13.426">
  <path id="Trazado_40" data-name="Trazado 40" d="M6.713,1.193A20.584,20.584,0,0,1,9.4,1.268a3.46,3.46,0,0,1,1.268.224A2.62,2.62,0,0,1,11.934,2.76a3.46,3.46,0,0,1,.224,1.268c0,.671.075.9.075,2.685A20.584,20.584,0,0,1,12.158,9.4a3.46,3.46,0,0,1-.224,1.268,2.62,2.62,0,0,1-1.268,1.268,3.46,3.46,0,0,1-1.268.224c-.671,0-.9.075-2.685.075a20.584,20.584,0,0,1-2.685-.075,3.46,3.46,0,0,1-1.268-.224,2.62,2.62,0,0,1-1.268-1.268A3.46,3.46,0,0,1,1.268,9.4c0-.671-.075-.9-.075-2.685a20.584,20.584,0,0,1,.075-2.685A3.46,3.46,0,0,1,1.492,2.76a2.679,2.679,0,0,1,.522-.746,1.261,1.261,0,0,1,.746-.522,3.46,3.46,0,0,1,1.268-.224,20.584,20.584,0,0,1,2.685-.075M6.713,0a22.039,22.039,0,0,0-2.76.075,4.6,4.6,0,0,0-1.641.3,2.92,2.92,0,0,0-1.193.746A2.92,2.92,0,0,0,.373,2.312a3.4,3.4,0,0,0-.3,1.641A22.039,22.039,0,0,0,0,6.713a22.039,22.039,0,0,0,.075,2.76,4.6,4.6,0,0,0,.3,1.641,2.92,2.92,0,0,0,.746,1.193,2.92,2.92,0,0,0,1.193.746,4.6,4.6,0,0,0,1.641.3,22.04,22.04,0,0,0,2.76.075,22.04,22.04,0,0,0,2.76-.075,4.6,4.6,0,0,0,1.641-.3,3.129,3.129,0,0,0,1.939-1.939,4.6,4.6,0,0,0,.3-1.641c0-.746.075-.97.075-2.76a22.04,22.04,0,0,0-.075-2.76,4.6,4.6,0,0,0-.3-1.641,2.92,2.92,0,0,0-.746-1.193A2.92,2.92,0,0,0,11.114.373a4.6,4.6,0,0,0-1.641-.3A22.039,22.039,0,0,0,6.713,0m0,3.282A3.376,3.376,0,0,0,3.282,6.713,3.431,3.431,0,1,0,6.713,3.282m0,5.669A2.2,2.2,0,0,1,4.475,6.713,2.2,2.2,0,0,1,6.713,4.475,2.2,2.2,0,0,1,8.951,6.713,2.2,2.2,0,0,1,6.713,8.951m3.58-6.639a.82.82,0,1,0,.82.82.828.828,0,0,0-.82-.82" fill="#f2f2f2" fill-rule="evenodd"/>
</svg>
