<svg xmlns="http://www.w3.org/2000/svg" viewBox="0 0 8.91 2.15"><defs><style>.cls-1{fill:#6bb5e6;}.cls-2{fill:#0089bf;}</style></defs><title>logo_span</title><g id="Capa_2" data-name="Capa 2"><g id="Capa_1-2" data-name="Capa 1"><path class="cls-1" d="M1.3,1.39v.52a.3.3,0,0,1-.05.18.2.2,0,0,1-.15.06A.17.17,0,0,1,1,2.09.24.24,0,0,1,.9,1.91V1.28a1.48,1.48,0,0,0,0-.23A.21.21,0,0,0,.84.92.18.18,0,0,0,.7.87C.58.87.49.91.46,1a.94.94,0,0,0-.06.38v.53a.24.24,0,0,1-.06.18.17.17,0,0,1-.14.06.17.17,0,0,1-.14-.06A.24.24,0,0,1,0,1.91V.79A.26.26,0,0,1,.05.62.16.16,0,0,1,.18.56.16.16,0,0,1,.31.62.18.18,0,0,1,.37.77v0A.6.6,0,0,1,.58.62.7.7,0,0,1,.83.57a.49.49,0,0,1,.25.06A.35.35,0,0,1,1.25.8.84.84,0,0,1,1.46.62.7.7,0,0,1,1.71.57.6.6,0,0,1,2,.63a.37.37,0,0,1,.17.18.87.87,0,0,1,.05.33v.77a.24.24,0,0,1-.06.18A.17.17,0,0,1,2,2.15a.17.17,0,0,1-.14-.06.24.24,0,0,1-.06-.18V1.25a1.09,1.09,0,0,0,0-.2A.26.26,0,0,0,1.73.92.18.18,0,0,0,1.59.87a.23.23,0,0,0-.14,0A.35.35,0,0,0,1.34,1,.94.94,0,0,0,1.3,1.39Z"/><path class="cls-1" d="M2.77.38a.17.17,0,0,1-.14,0A.17.17,0,0,1,2.57.19.18.18,0,0,1,2.63.05a.22.22,0,0,1,.14,0A.21.21,0,0,1,2.9.05.17.17,0,0,1,3,.19.17.17,0,0,1,2.9.33.17.17,0,0,1,2.77.38ZM3,.79V1.91a.24.24,0,0,1-.06.18.18.18,0,0,1-.14.06.2.2,0,0,1-.14-.06.3.3,0,0,1-.05-.18V.8A.3.3,0,0,1,2.62.62.2.2,0,0,1,2.76.56.18.18,0,0,1,2.9.62.24.24,0,0,1,3,.79Z"/><path class="cls-2" d="M3.37.6h0V.22a.17.17,0,0,1,0-.1A.12.12,0,0,1,3.51.06a.17.17,0,0,1,.1,0,.18.18,0,0,1,.13.06.13.13,0,0,1,0,.09.66.66,0,0,1,0,.15V.6h.14a.17.17,0,0,1,.13,0,.15.15,0,0,1,0,.1.11.11,0,0,1-.06.11.42.42,0,0,1-.18,0H3.8V1.6a.53.53,0,0,0,0,.14.11.11,0,0,0,0,.08.12.12,0,0,0,.09,0h.18a.11.11,0,0,1,.08,0,.13.13,0,0,1,0,.1.15.15,0,0,1-.1.14.72.72,0,0,1-.29,0,.49.49,0,0,1-.27-.06.27.27,0,0,1-.13-.17,2.07,2.07,0,0,1,0-.29V.88h0a.17.17,0,0,1-.13,0,.13.13,0,0,1,0-.1.12.12,0,0,1,0-.1A.18.18,0,0,1,3.37.6Z"/><path class="cls-2" d="M5.81,1.36a1.13,1.13,0,0,1,0,.32.72.72,0,0,1-.16.25.63.63,0,0,1-.24.16A.79.79,0,0,1,5,2.15a.78.78,0,0,1-.31-.06.63.63,0,0,1-.24-.16.72.72,0,0,1-.16-.25,1.13,1.13,0,0,1,0-.32,1.14,1.14,0,0,1,0-.33A.72.72,0,0,1,4.49.78.67.67,0,0,1,4.73.62.78.78,0,0,1,5,.56a.79.79,0,0,1,.32.06A.6.6,0,0,1,5.6.78.76.76,0,0,1,5.76,1,1,1,0,0,1,5.81,1.36Zm-.38,0A.56.56,0,0,0,5.32,1,.34.34,0,0,0,5,.85a.31.31,0,0,0-.19.06.37.37,0,0,0-.14.18.7.7,0,0,0,0,.27.68.68,0,0,0,0,.26.42.42,0,0,0,.13.18.36.36,0,0,0,.2.06.33.33,0,0,0,.28-.13A.6.6,0,0,0,5.43,1.36Z"/><path class="cls-2" d="M7.11,1.93V1.88A1,1,0,0,1,7,2a.7.7,0,0,1-.17.09.66.66,0,0,1-.21,0,.54.54,0,0,1-.25-.06.44.44,0,0,1-.17-.16.82.82,0,0,1-.07-.36V.8A.3.3,0,0,1,6.15.62.18.18,0,0,1,6.29.56a.17.17,0,0,1,.14.06A.24.24,0,0,1,6.49.8v.62a.79.79,0,0,0,0,.23.22.22,0,0,0,.08.14.21.21,0,0,0,.16.06.32.32,0,0,0,.18-.06.34.34,0,0,0,.13-.16,1.27,1.27,0,0,0,0-.36V.8a.3.3,0,0,1,0-.18.19.19,0,0,1,.28,0,.3.3,0,0,1,0,.18V1.93a.29.29,0,0,1,0,.17.19.19,0,0,1-.13,0,.18.18,0,0,1-.13-.06A.25.25,0,0,1,7.11,1.93Z"/><path class="cls-2" d="M8.23,1.59v.32a.24.24,0,0,1-.05.18A.18.18,0,0,1,8,2.15a.2.2,0,0,1-.14-.06.3.3,0,0,1-.05-.18V.83c0-.18.06-.27.19-.27a.15.15,0,0,1,.14.07.4.4,0,0,1,0,.18A.7.7,0,0,1,8.36.63a.27.27,0,0,1,.2-.07.39.39,0,0,1,.23.07.18.18,0,0,1,.12.16.17.17,0,0,1-.05.12.17.17,0,0,1-.11,0l-.1,0L8.51.9a.21.21,0,0,0-.14,0,.27.27,0,0,0-.08.14.65.65,0,0,0,0,.21A2.36,2.36,0,0,0,8.23,1.59Z"/></g></g></svg>