<svg xmlns="http://www.w3.org/2000/svg" viewBox="0 0 99.21 134.92"><defs><style>.cls-1{fill:#009bdb;}.cls-2{fill:#fff;}.cls-3{fill:#6bb5e6;}.cls-4{fill:#0089bf;}</style></defs><title>Recurso 81</title><g id="Capa_2" data-name="Capa 2"><g id="Capa_1-2" data-name="Capa 1"><path class="cls-1" d="M98,21c-2.84-5.79-7.65-8.74-14.14-8.79-11.25-.09-22.51,0-33.77,0s-22.33-.06-33.49,0a18.37,18.37,0,0,0-11,3.31h0A13.39,13.39,0,0,0,.19,26.47c0,3.93-.09,7.87-.12,11.8C0,51.06,0,63.86.24,76.65.44,86.1,5.8,90.36,14.73,91c4.48.34,9.08-.06,13.64.08a3.37,3.37,0,0,1,3.07,1.67c2.62,3.91,5.46,7.67,8,11.64,5,8,16.58,6.71,20.9-.46,2.22-3.69,4.88-7.12,7.26-10.73a4.2,4.2,0,0,1,3.27-2,54.3,54.3,0,0,1,10.74-.16c11,.73,17.61-5.24,17.62-16q0-23.52,0-47A15.61,15.61,0,0,0,98,21ZM73.44,68.5c-6.83,10-13.6,20-20.43,29.93-2.41,3.51-4.37,3.37-6.78-.19q-9.93-14.64-20-29.19c-5.77-8.31-6.75-17.35-3.06-26.43a28.55,28.55,0,0,1,3.47-6.24,28.09,28.09,0,0,1,16-10.44c2.32-.6,4.66-1.4,6.72-1.13a30.44,30.44,0,0,1,24,12.36A24.3,24.3,0,0,1,77.37,46C79.17,53.94,78.19,61.58,73.44,68.5Z"/><path class="cls-1" d="M61.34,53.13A11.21,11.21,0,0,1,49.56,64.58c-7-.13-11.62-5-11.58-12.31,0-5.93,5.47-11,11.8-10.83C56.84,41.59,62.1,47.38,61.34,53.13Z"/><rect class="cls-2" x="8.91" y="22.41" width="12.1" height="6.9" rx="1.97"/><rect class="cls-1" x="72.16" width="18.9" height="9.56" rx="2.73"/><path class="cls-3" d="M22.23,128v4.68a2.45,2.45,0,0,1-.5,1.67,1.65,1.65,0,0,1-1.3.55,1.62,1.62,0,0,1-1.28-.55,2.45,2.45,0,0,1-.49-1.67v-5.61a18.14,18.14,0,0,0-.09-2.07,2.25,2.25,0,0,0-.48-1.2,1.51,1.51,0,0,0-1.24-.47,2.21,2.21,0,0,0-2.25,1.18,8.74,8.74,0,0,0-.53,3.41v4.76a2.49,2.49,0,0,1-.49,1.66,1.77,1.77,0,0,1-2.58,0,2.44,2.44,0,0,1-.5-1.66V122.62a2.25,2.25,0,0,1,.45-1.51,1.51,1.51,0,0,1,1.19-.51,1.58,1.58,0,0,1,1.18.48,1.82,1.82,0,0,1,.48,1.34v.33a6,6,0,0,1,1.93-1.61,5.06,5.06,0,0,1,2.28-.52,4.56,4.56,0,0,1,2.25.53,4.19,4.19,0,0,1,1.55,1.6,5.89,5.89,0,0,1,1.88-1.6,4.7,4.7,0,0,1,2.22-.53,5,5,0,0,1,2.45.57,3.55,3.55,0,0,1,1.53,1.63,7.44,7.44,0,0,1,.45,3v6.88a2.45,2.45,0,0,1-.5,1.67,1.79,1.79,0,0,1-2.59,0,2.39,2.39,0,0,1-.5-1.66v-5.92a14.3,14.3,0,0,0-.1-1.82,2.06,2.06,0,0,0-.51-1.15,1.63,1.63,0,0,0-1.27-.46,2.25,2.25,0,0,0-1.3.41,2.74,2.74,0,0,0-1,1.11A8.79,8.79,0,0,0,22.23,128Z"/><path class="cls-3" d="M35.45,119a1.79,1.79,0,0,1-1.23-.45,1.76,1.76,0,0,1,0-2.51,1.77,1.77,0,0,1,1.22-.49,1.83,1.83,0,0,1,1.2.44,1.84,1.84,0,0,1,0,2.55A1.73,1.73,0,0,1,35.45,119Zm1.72,3.64v10.18a2.31,2.31,0,0,1-.5,1.6,1.63,1.63,0,0,1-1.26.54,1.53,1.53,0,0,1-1.23-.55,2.36,2.36,0,0,1-.48-1.59V122.7a2.25,2.25,0,0,1,.48-1.57,1.58,1.58,0,0,1,1.23-.53,1.66,1.66,0,0,1,1.26.53A2.06,2.06,0,0,1,37.17,122.6Z"/><path class="cls-4" d="M40.94,120.91h.38v-2.12c0-.57,0-1,0-1.33a2,2,0,0,1,.25-.84,1.54,1.54,0,0,1,.58-.58,1.67,1.67,0,0,1,.85-.23,1.74,1.74,0,0,1,1.2.5,1.62,1.62,0,0,1,.45.82,8.08,8.08,0,0,1,.09,1.38v2.4h1.27a1.66,1.66,0,0,1,1.13.35,1.21,1.21,0,0,1,.38.91,1,1,0,0,1-.55,1,3.55,3.55,0,0,1-1.58.28h-.65v6.48a10.2,10.2,0,0,0,.06,1.27,1.32,1.32,0,0,0,.3.72,1,1,0,0,0,.81.28,4.42,4.42,0,0,0,.82-.11,4.53,4.53,0,0,1,.82-.11,1,1,0,0,1,.75.34,1.15,1.15,0,0,1,.34.85,1.43,1.43,0,0,1-.91,1.3,6.13,6.13,0,0,1-2.63.45,4.44,4.44,0,0,1-2.46-.55,2.58,2.58,0,0,1-1.1-1.54,10.28,10.28,0,0,1-.26-2.62v-6.76h-.46a1.62,1.62,0,0,1-1.14-.36,1.21,1.21,0,0,1-.4-.92,1.14,1.14,0,0,1,.42-.91A1.81,1.81,0,0,1,40.94,120.91Z"/><path class="cls-4" d="M62.92,127.76a8.44,8.44,0,0,1-.48,2.9A6.42,6.42,0,0,1,61,133a6.29,6.29,0,0,1-2.18,1.46,7.63,7.63,0,0,1-2.86.51,7.47,7.47,0,0,1-2.83-.51A6.3,6.3,0,0,1,51,132.93a6.37,6.37,0,0,1-1.4-2.27,9,9,0,0,1,0-5.83A6.35,6.35,0,0,1,51,122.56a6.08,6.08,0,0,1,2.18-1.45A7.62,7.62,0,0,1,56,120.6a7.7,7.7,0,0,1,2.86.51,6.29,6.29,0,0,1,2.19,1.48,6.18,6.18,0,0,1,1.39,2.27A8.36,8.36,0,0,1,62.92,127.76Zm-3.48,0a5.37,5.37,0,0,0-.93-3.36A3,3,0,0,0,56,123.2a3.08,3.08,0,0,0-1.79.54A3.42,3.42,0,0,0,53,125.32a7.29,7.29,0,0,0,0,4.85,3.46,3.46,0,0,0,1.18,1.58,3.24,3.24,0,0,0,4.32-.65A5.37,5.37,0,0,0,59.44,127.76Z"/><path class="cls-4" d="M74.65,132.93v-.45a7.6,7.6,0,0,1-1.31,1.34,4.57,4.57,0,0,1-1.5.81,5.86,5.86,0,0,1-1.85.27,4.73,4.73,0,0,1-2.25-.53,3.9,3.9,0,0,1-1.55-1.46,6.59,6.59,0,0,1-.64-3.23v-7a2.28,2.28,0,0,1,.47-1.58,1.57,1.57,0,0,1,1.24-.52,1.65,1.65,0,0,1,1.27.53A2.25,2.25,0,0,1,69,122.7v5.64a8.59,8.59,0,0,0,.21,2.06,2.44,2.44,0,0,0,.72,1.3,2.06,2.06,0,0,0,1.43.47,2.79,2.79,0,0,0,1.65-.53,3,3,0,0,0,1.13-1.38,11.08,11.08,0,0,0,.29-3.27V122.7a2.21,2.21,0,0,1,.49-1.57,1.62,1.62,0,0,1,1.25-.53,1.6,1.6,0,0,1,1.25.52,2.33,2.33,0,0,1,.47,1.58v10.21a2.21,2.21,0,0,1-.45,1.51,1.51,1.51,0,0,1-1.17.5,1.49,1.49,0,0,1-1.17-.52A2.14,2.14,0,0,1,74.65,132.93Z"/><path class="cls-4" d="M84.79,129.84v2.94a2.32,2.32,0,0,1-.5,1.61,1.64,1.64,0,0,1-1.25.53,1.57,1.57,0,0,1-1.23-.54,2.3,2.3,0,0,1-.49-1.6V123c0-1.58.57-2.37,1.69-2.37a1.41,1.41,0,0,1,1.25.55,3.19,3.19,0,0,1,.42,1.64A6.22,6.22,0,0,1,86,121.15a2.62,2.62,0,0,1,1.75-.55,4.44,4.44,0,0,1,2.12.55,1.66,1.66,0,0,1,1,1.47,1.42,1.42,0,0,1-.43,1.07,1.37,1.37,0,0,1-1,.42,4.28,4.28,0,0,1-.92-.24,4.24,4.24,0,0,0-1.29-.24A1.85,1.85,0,0,0,86,124a2.64,2.64,0,0,0-.75,1.2,8.63,8.63,0,0,0-.37,1.91C84.82,127.88,84.79,128.78,84.79,129.84Z"/></g></g></svg>