<svg xmlns="http://www.w3.org/2000/svg" viewBox="0 0 80.34 19.41"><defs><style>.cls-1{fill:#6bb5e6;}.cls-2{fill:#0089bf;}</style></defs><title>logo_h1</title><g id="Capa_2" data-name="Capa 2"><g id="Capa_1-2" data-name="Capa 1"><path class="cls-1" d="M11.73,12.5v4.69a2.42,2.42,0,0,1-.5,1.66,1.66,1.66,0,0,1-1.3.56,1.63,1.63,0,0,1-1.28-.56,2.42,2.42,0,0,1-.49-1.66V11.58a18.14,18.14,0,0,0-.09-2.07A2.31,2.31,0,0,0,7.59,8.3a1.54,1.54,0,0,0-1.24-.47A2.19,2.19,0,0,0,4.11,9a8.5,8.5,0,0,0-.54,3.41v4.76a2.51,2.51,0,0,1-.49,1.66,1.65,1.65,0,0,1-1.29.56A1.65,1.65,0,0,1,.5,18.85,2.46,2.46,0,0,1,0,17.19V7.11A2.23,2.23,0,0,1,.45,5.6a1.52,1.52,0,0,1,1.19-.52,1.59,1.59,0,0,1,1.18.49A1.81,1.81,0,0,1,3.3,6.9v.34A6,6,0,0,1,5.23,5.63a4.93,4.93,0,0,1,2.28-.52,4.56,4.56,0,0,1,2.25.53,4.12,4.12,0,0,1,1.55,1.6,6.06,6.06,0,0,1,1.88-1.61,4.72,4.72,0,0,1,2.22-.52,5,5,0,0,1,2.45.57A3.58,3.58,0,0,1,19.39,7.3a7.5,7.5,0,0,1,.45,3v6.88a2.42,2.42,0,0,1-.5,1.66,1.78,1.78,0,0,1-2.59,0,2.41,2.41,0,0,1-.5-1.66V11.26a14.13,14.13,0,0,0-.1-1.81,2.06,2.06,0,0,0-.51-1.15,1.64,1.64,0,0,0-1.27-.47,2.26,2.26,0,0,0-1.3.42,2.74,2.74,0,0,0-1,1.11A8.76,8.76,0,0,0,11.73,12.5Z"/><path class="cls-1" d="M25,3.45A1.8,1.8,0,0,1,23.72,3a1.57,1.57,0,0,1-.52-1.27A1.63,1.63,0,0,1,23.73.48,1.76,1.76,0,0,1,25,0a1.83,1.83,0,0,1,1.2.44,1.6,1.6,0,0,1,.52,1.28A1.63,1.63,0,0,1,26.16,3,1.77,1.77,0,0,1,25,3.45Zm1.72,3.63V17.27a2.32,2.32,0,0,1-.5,1.6,1.63,1.63,0,0,1-1.25.54,1.56,1.56,0,0,1-1.24-.56,2.35,2.35,0,0,1-.48-1.58V7.19a2.3,2.3,0,0,1,.48-1.58,1.6,1.6,0,0,1,1.24-.53,1.65,1.65,0,0,1,1.25.53A2.09,2.09,0,0,1,26.67,7.08Z"/><path class="cls-2" d="M30.44,5.39h.38V3.28c0-.57,0-1,0-1.34a1.93,1.93,0,0,1,.25-.83,1.64,1.64,0,0,1,.58-.59A1.66,1.66,0,0,1,32.54.3a1.7,1.7,0,0,1,1.2.5,1.58,1.58,0,0,1,.45.82A8,8,0,0,1,34.28,3v2.4h1.27a1.61,1.61,0,0,1,1.13.36,1.21,1.21,0,0,1,.38.91,1,1,0,0,1-.55,1,3.5,3.5,0,0,1-1.58.29h-.65v6.47a10.09,10.09,0,0,0,.06,1.27,1.38,1.38,0,0,0,.3.73,1.07,1.07,0,0,0,.81.27,4.44,4.44,0,0,0,.83-.1,3.63,3.63,0,0,1,.81-.11,1,1,0,0,1,.75.34,1.14,1.14,0,0,1,.34.84A1.41,1.41,0,0,1,37.27,19a6.13,6.13,0,0,1-2.63.45,4.43,4.43,0,0,1-2.46-.56,2.56,2.56,0,0,1-1.1-1.53,10.33,10.33,0,0,1-.26-2.62V7.94h-.46a1.58,1.58,0,0,1-1.14-.37,1.18,1.18,0,0,1-.39-.91,1.13,1.13,0,0,1,.41-.91A1.76,1.76,0,0,1,30.44,5.39Z"/><path class="cls-2" d="M52.42,12.25a8.48,8.48,0,0,1-.48,2.9,6.3,6.3,0,0,1-1.4,2.28,6.09,6.09,0,0,1-2.18,1.47,7.63,7.63,0,0,1-2.86.51,7.28,7.28,0,0,1-2.83-.52,6.16,6.16,0,0,1-2.17-1.48,6.29,6.29,0,0,1-1.4-2.27,8.34,8.34,0,0,1-.48-2.89,8.3,8.3,0,0,1,.49-2.93A6.39,6.39,0,0,1,40.49,7a6.22,6.22,0,0,1,2.18-1.45,7.62,7.62,0,0,1,2.83-.51,7.7,7.7,0,0,1,2.86.52,6,6,0,0,1,2.19,1.47,6.27,6.27,0,0,1,1.39,2.27A8.46,8.46,0,0,1,52.42,12.25Zm-3.48,0A5.37,5.37,0,0,0,48,8.89a3,3,0,0,0-2.51-1.2,3.08,3.08,0,0,0-1.79.54,3.37,3.37,0,0,0-1.19,1.58,6.49,6.49,0,0,0-.42,2.44,6.57,6.57,0,0,0,.41,2.41,3.51,3.51,0,0,0,1.18,1.58,3,3,0,0,0,1.81.55A3,3,0,0,0,48,15.58,5.32,5.32,0,0,0,48.94,12.25Z"/><path class="cls-2" d="M64.15,17.42V17a8,8,0,0,1-1.31,1.34,5,5,0,0,1-1.5.81,6.17,6.17,0,0,1-1.85.26,4.62,4.62,0,0,1-2.25-.53,3.83,3.83,0,0,1-1.55-1.46,6.53,6.53,0,0,1-.64-3.22v-7a2.26,2.26,0,0,1,.47-1.58,1.59,1.59,0,0,1,1.24-.53A1.64,1.64,0,0,1,58,5.61a2.3,2.3,0,0,1,.48,1.58v5.64a8.5,8.5,0,0,0,.21,2.05,2.41,2.41,0,0,0,.73,1.31,2.06,2.06,0,0,0,1.42.47,2.87,2.87,0,0,0,1.65-.53,3,3,0,0,0,1.13-1.38,11,11,0,0,0,.3-3.28V7.19a2.3,2.3,0,0,1,.48-1.58,1.74,1.74,0,0,1,2.5,0,2.31,2.31,0,0,1,.47,1.58v10.2A2.18,2.18,0,0,1,67,18.9a1.48,1.48,0,0,1-1.16.51,1.51,1.51,0,0,1-1.18-.53A2.1,2.1,0,0,1,64.15,17.42Z"/><path class="cls-2" d="M74.29,14.32v2.95a2.23,2.23,0,0,1-.5,1.6,1.61,1.61,0,0,1-1.25.54,1.57,1.57,0,0,1-1.23-.54,2.37,2.37,0,0,1-.48-1.6V7.46c0-1.58.56-2.38,1.68-2.38a1.42,1.42,0,0,1,1.25.56,3.16,3.16,0,0,1,.42,1.64,6.06,6.06,0,0,1,1.27-1.64,2.63,2.63,0,0,1,1.75-.56,4.45,4.45,0,0,1,2.12.56,1.66,1.66,0,0,1,1,1.47,1.39,1.39,0,0,1-.43,1.06,1.37,1.37,0,0,1-1,.42A4.68,4.68,0,0,1,78,8.36a4.18,4.18,0,0,0-1.29-.24,1.85,1.85,0,0,0-1.24.4,2.67,2.67,0,0,0-.75,1.21,8.53,8.53,0,0,0-.37,1.9C74.32,12.37,74.29,13.27,74.29,14.32Z"/></g></g></svg>