<svg xmlns="http://www.w3.org/2000/svg" viewBox="0 0 70 16.63"><defs><style>.cls-1{fill:#6bb5e6;}.cls-2{fill:#0089bf;}</style></defs><title>Recurso 1</title><g id="Capa_2" data-name="Capa 2"><g id="Capa_1-2" data-name="Capa 1"><path class="cls-1" d="M10.22,10.72v4a2.12,2.12,0,0,1-.43,1.43,1.49,1.49,0,0,1-1.14.47,1.43,1.43,0,0,1-1.11-.47,2.07,2.07,0,0,1-.43-1.43V9.92A15.71,15.71,0,0,0,7,8.15a1.88,1.88,0,0,0-.42-1,1.34,1.34,0,0,0-1.08-.41,1.92,1.92,0,0,0-1.95,1,7.07,7.07,0,0,0-.47,2.92v4.08a2,2,0,0,1-.43,1.42,1.42,1.42,0,0,1-1.12.48,1.44,1.44,0,0,1-1.12-.48A2,2,0,0,1,0,14.73V6.09A1.89,1.89,0,0,1,.39,4.8a1.3,1.3,0,0,1,1-.44,1.43,1.43,0,0,1,1,.41,1.55,1.55,0,0,1,.42,1.15V6.2A5.33,5.33,0,0,1,4.56,4.82a4.47,4.47,0,0,1,2-.44,4,4,0,0,1,2,.45A3.49,3.49,0,0,1,9.85,6.2a5.28,5.28,0,0,1,1.64-1.37,4.16,4.16,0,0,1,1.93-.45,4.37,4.37,0,0,1,2.14.49A3.06,3.06,0,0,1,16.9,6.26a6.35,6.35,0,0,1,.38,2.58v5.89a2.07,2.07,0,0,1-.43,1.43,1.58,1.58,0,0,1-2.26,0,2,2,0,0,1-.44-1.42V9.65a11.13,11.13,0,0,0-.08-1.56,1.72,1.72,0,0,0-.45-1,1.44,1.44,0,0,0-1.1-.4,2,2,0,0,0-1.14.36,2.4,2.4,0,0,0-.83.95A7.61,7.61,0,0,0,10.22,10.72Z"/><path class="cls-1" d="M21.74,3a1.64,1.64,0,0,1-1.08-.38,1.38,1.38,0,0,1-.45-1.1A1.39,1.39,0,0,1,20.67.41a1.61,1.61,0,0,1,2.11,0,1.33,1.33,0,0,1,.45,1.09,1.35,1.35,0,0,1-.44,1.09A1.52,1.52,0,0,1,21.74,3Zm1.49,3.12V14.8a1.94,1.94,0,0,1-.43,1.37,1.42,1.42,0,0,1-1.09.46,1.39,1.39,0,0,1-1.08-.47,2,2,0,0,1-.42-1.36V6.16a1.92,1.92,0,0,1,.42-1.35,1.41,1.41,0,0,1,1.08-.45,1.45,1.45,0,0,1,1.09.45A1.74,1.74,0,0,1,23.23,6.07Z"/><path class="cls-2" d="M26.52,4.62h.33V2.81c0-.49,0-.87,0-1.15A1.74,1.74,0,0,1,27.1,1a1.36,1.36,0,0,1,.51-.5,1.44,1.44,0,0,1,.74-.2,1.48,1.48,0,0,1,1,.44,1.27,1.27,0,0,1,.4.7,6.91,6.91,0,0,1,.08,1.18V4.62H31a1.37,1.37,0,0,1,1,.31,1,1,0,0,1,.34.78.87.87,0,0,1-.48.85,3.16,3.16,0,0,1-1.38.24h-.56v5.55a9.69,9.69,0,0,0,.05,1.09,1.1,1.1,0,0,0,.26.62.92.92,0,0,0,.71.24,3.44,3.44,0,0,0,.72-.1,3.79,3.79,0,0,1,.7-.09.91.91,0,0,1,.66.29,1,1,0,0,1,.29.73,1.2,1.2,0,0,1-.79,1.11,5.36,5.36,0,0,1-2.29.39A4,4,0,0,1,28,16.16a2.24,2.24,0,0,1-1-1.32,9,9,0,0,1-.23-2.24V6.8h-.4a1.4,1.4,0,0,1-1-.31,1,1,0,0,1-.35-.78,1,1,0,0,1,.36-.78A1.55,1.55,0,0,1,26.52,4.62Z"/><path class="cls-2" d="M45.67,10.49A7.15,7.15,0,0,1,45.25,13a5.4,5.4,0,0,1-3.12,3.22,6.7,6.7,0,0,1-2.49.43,6.61,6.61,0,0,1-2.46-.44,5.61,5.61,0,0,1-1.9-1.27A5.4,5.4,0,0,1,34.07,13a7.07,7.07,0,0,1-.42-2.49A7.22,7.22,0,0,1,34.07,8a5.33,5.33,0,0,1,3.11-3.19,6.73,6.73,0,0,1,2.46-.43,6.58,6.58,0,0,1,2.49.44,5.35,5.35,0,0,1,1.92,1.26,5.49,5.49,0,0,1,1.21,2A7.29,7.29,0,0,1,45.67,10.49Zm-3,0a4.52,4.52,0,0,0-.81-2.87,2.84,2.84,0,0,0-3.74-.57,2.93,2.93,0,0,0-1,1.35,5.42,5.42,0,0,0-.37,2.09A5.47,5.47,0,0,0,37,12.56a3,3,0,0,0,1,1.36,2.67,2.67,0,0,0,1.57.47,2.64,2.64,0,0,0,2.19-1A4.53,4.53,0,0,0,42.64,10.49Z"/><path class="cls-2" d="M55.89,14.93v-.39a6.54,6.54,0,0,1-1.14,1.15,4.18,4.18,0,0,1-1.3.69,5.37,5.37,0,0,1-1.62.23,4.19,4.19,0,0,1-2-.45,3.4,3.4,0,0,1-1.35-1.25A5.62,5.62,0,0,1,48,12.14v-6a2,2,0,0,1,.41-1.36,1.41,1.41,0,0,1,1.08-.44,1.45,1.45,0,0,1,1.11.45A1.92,1.92,0,0,1,51,6.16V11a7.42,7.42,0,0,0,.18,1.77,2.1,2.1,0,0,0,.63,1.11,1.83,1.83,0,0,0,1.25.41,2.46,2.46,0,0,0,1.43-.46,2.64,2.64,0,0,0,1-1.18,9.55,9.55,0,0,0,.25-2.81V6.16a1.92,1.92,0,0,1,.42-1.35,1.44,1.44,0,0,1,1.1-.45,1.41,1.41,0,0,1,1.08.44,2,2,0,0,1,.41,1.36v8.75a1.88,1.88,0,0,1-.39,1.29,1.29,1.29,0,0,1-1,.43,1.32,1.32,0,0,1-1-.45A1.77,1.77,0,0,1,55.89,14.93Z"/><path class="cls-2" d="M64.73,12.27V14.8a1.91,1.91,0,0,1-.44,1.37,1.41,1.41,0,0,1-1.09.46,1.36,1.36,0,0,1-1.07-.46,2,2,0,0,1-.42-1.37V6.39c0-1.35.49-2,1.47-2a1.23,1.23,0,0,1,1.08.47,2.73,2.73,0,0,1,.37,1.41,5.32,5.32,0,0,1,1.11-1.41,2.32,2.32,0,0,1,1.52-.47,3.93,3.93,0,0,1,1.84.47A1.43,1.43,0,0,1,70,6.09a1.23,1.23,0,0,1-.38.92,1.18,1.18,0,0,1-.83.35,3.53,3.53,0,0,1-.8-.2A3.59,3.59,0,0,0,66.87,7a1.64,1.64,0,0,0-1.08.34,2.34,2.34,0,0,0-.66,1A7.59,7.59,0,0,0,64.81,10C64.75,10.6,64.73,11.37,64.73,12.27Z"/></g></g></svg>