<svg xmlns="http://www.w3.org/2000/svg" viewBox="0 0 67.76 65.62"><defs><style>.cls-1{fill:#fff;}</style></defs><title>photo_icon_1</title><g id="Capa_2" data-name="Capa 2"><g id="Capa_3" data-name="Capa 3"><path class="cls-1" d="M67.76,10.64q0,15.8,0,31.6c0,7.21-4.52,11.23-12,10.73a39.14,39.14,0,0,0-7.34.11,2.91,2.91,0,0,0-2.24,1.36c-1.62,2.42-3.43,4.73-5,7.21-2.95,4.81-10.85,5.65-14.28.3-1.71-2.66-3.65-5.19-5.44-7.82A2.3,2.3,0,0,0,19.37,53c-3.11-.09-6.25.18-9.31,0C4,52.51.3,49.65.16,43.3,0,34.71,0,26.11.05,17.52c0-2.64.05-5.29.08-7.93A9,9,0,0,1,3.8,2.26h0A12.68,12.68,0,0,1,11.31,0c7.62,0,15.25,0,22.87,0S49.56,0,57.25,0A10.17,10.17,0,0,1,66.9,5.94,10.33,10.33,0,0,1,67.76,10.64Z"/></g></g></svg>