<svg xmlns="http://www.w3.org/2000/svg" xmlns:xlink="http://www.w3.org/1999/xlink" viewBox="0 0 1065.19 1006.98"><defs><style>.cls-1,.cls-2{fill:none;}.cls-2{stroke:#009bdb;stroke-miterlimit:10;}.cls-3{opacity:0.31;fill:url(#Motivo_nuevo_4);}</style><pattern id="Motivo_nuevo_4" data-name="Motivo nuevo 4" width="718.02" height="655.41" patternUnits="userSpaceOnUse" viewBox="0 0 718.02 655.4"><rect class="cls-1" width="718.02" height="655.41"/><path class="cls-2" d="M289.89,515.21q11.17-11.16,22.35-22.34c5.1-5.1,11.13-4.75,16.09.92a38.58,38.58,0,0,0,5.27,5.11,2.85,2.85,0,0,0,2.54.62c2.86-.56,5.77-.91,8.6-1.59,5.49-1.32,11.67,3.67,10.31,9.88-.67,3.09-1.08,6.25-1.68,9.37a2.3,2.3,0,0,0,.69,2.28c2.14,2.26,4.55,4.3,6.55,6.62,4,4.63,4.56,9.24.17,13.83-5.94,6.21-12,12.29-18.15,18.32L337,563.77a8.94,8.94,0,0,1-7.78,2.58h0a12.67,12.67,0,0,1-6.87-3.72c-5.43-5.36-10.79-10.78-16.18-16.17s-10.91-10.84-16.3-16.32a10,10,0,0,1,.07-14.93Z"/><path class="cls-2" d="M36.57,463.12Q47.76,452,58.92,440.79c5.11-5.1,11.14-4.75,16.1.91a37.52,37.52,0,0,0,5.27,5.12,2.9,2.9,0,0,0,2.54.62c2.86-.57,5.77-.92,8.59-1.6,5.5-1.32,11.68,3.68,10.32,9.88-.68,3.1-1.09,6.26-1.68,9.38a2.29,2.29,0,0,0,.69,2.27c2.13,2.27,4.54,4.31,6.55,6.63,4,4.63,4.55,9.24.17,13.83-6,6.21-12,12.29-18.15,18.31l-5.67,5.55a9,9,0,0,1-7.78,2.58h0A12.75,12.75,0,0,1,69,510.54c-5.42-5.35-10.78-10.77-16.18-16.16s-10.9-10.84-16.3-16.32a10.19,10.19,0,0,1-2.65-11A10.54,10.54,0,0,1,36.57,463.12Z"/><path class="cls-2" d="M615.9,362.91c-11.51,2.06-23,4.18-34.52,6.23-4.06.73-5.32-.73-4.57-4.82,2.07-11.22,4.11-22.45,6.05-33.7,1.67-9.65,7.15-16.49,15.88-20.11a27.71,27.71,0,0,1,6.64-1.85c16.42-2.34,31.14,10.92,32,27.12a28.64,28.64,0,0,1-.28,5.7,23.32,23.32,0,0,1-3.2,8.84C629.78,357,623.9,361.48,615.9,362.91Z"/><path class="cls-2" d="M555.06,606c-11.51,2.06-23,4.18-34.52,6.23-4.06.73-5.32-.73-4.56-4.82,2.06-11.22,4.1-22.45,6-33.7,1.67-9.65,7.15-16.49,15.89-20.11a27.58,27.58,0,0,1,6.64-1.85c16.41-2.34,31.14,10.92,32,27.12a27.21,27.21,0,0,1-.28,5.7,23.16,23.16,0,0,1-3.2,8.84C569,600.09,563.06,604.61,555.06,606Z"/><path class="cls-2" d="M440.4,412.61,432,421a5.91,5.91,0,0,1-8.36,0h0a5.91,5.91,0,0,1,0-8.36l8.36-8.36a5.91,5.91,0,0,1,8.36,0h0A5.91,5.91,0,0,1,440.4,412.61Z"/><path class="cls-2" d="M309.6,204.68Q298.42,215.83,287.25,227c-5.1,5.1-11.13,4.75-16.09-.91a38,38,0,0,0-5.27-5.11,2.88,2.88,0,0,0-2.54-.63c-2.86.57-5.77.92-8.6,1.6-5.49,1.32-11.67-3.68-10.31-9.88.67-3.1,1.08-6.26,1.68-9.38a2.31,2.31,0,0,0-.69-2.27c-2.14-2.27-4.55-4.3-6.55-6.63-4-4.63-4.56-9.24-.17-13.82,5.94-6.22,12-12.3,18.15-18.32l5.66-5.54a9,9,0,0,1,7.78-2.59h0a12.69,12.69,0,0,1,6.87,3.73c5.43,5.36,10.79,10.77,16.18,16.16s10.91,10.85,16.3,16.33a10,10,0,0,1-.07,14.93Z"/><path class="cls-2" d="M63,241.78c11.51-2.06,23-4.19,34.52-6.24,4.06-.72,5.32.73,4.56,4.82-2.06,11.23-4.1,22.46-6,33.7-1.67,9.66-7.15,16.49-15.89,20.12A27.1,27.1,0,0,1,73.52,296c-16.41,2.34-31.14-10.92-32-27.11a27.31,27.31,0,0,1,.28-5.71,23,23,0,0,1,3.2-8.83C49.12,247.72,55,243.2,63,241.78Z"/><path class="cls-2" d="M346.74,47.49c11.51-2.05,23-4.18,34.52-6.23,4.06-.72,5.32.73,4.56,4.82-2.06,11.23-4.1,22.46-6,33.7-1.67,9.65-7.15,16.49-15.88,20.12a27.22,27.22,0,0,1-6.64,1.84c-16.42,2.34-31.14-10.92-32-27.11a28,28,0,0,1,.28-5.71,23.21,23.21,0,0,1,3.2-8.83C332.85,53.44,338.74,48.92,346.74,47.49Z"/><path class="cls-2" d="M71.88,90.83l-8.36-8.36a5.91,5.91,0,0,1,0-8.36h0a5.91,5.91,0,0,1,8.36,0l8.36,8.36a5.91,5.91,0,0,1,0,8.36h0A5.91,5.91,0,0,1,71.88,90.83Z"/><path class="cls-2" d="M250.13,384c-8.33,8.2-20.62,7.93-28.88-.65-8.65-9-8.39-20.72.66-29.69,7.35-7.28,20.38-6.66,28.15,1.44C258.71,364.17,258.17,377.9,250.13,384Z"/><path class="cls-2" d="M204.46,76.49c-8.33,8.21-20.62,7.94-28.88-.64-8.65-9-8.39-20.73.66-29.69,7.35-7.28,20.38-6.67,28.15,1.44C213,56.63,212.5,70.35,204.46,76.49Z"/><path class="cls-2" d="M457.14,290.32c-8.33,8.2-20.62,7.93-28.88-.65-8.65-9-8.39-20.73.66-29.69,7.35-7.28,20.38-6.67,28.15,1.44C465.72,270.45,465.18,284.18,457.14,290.32Z"/><path class="cls-2" d="M642.22,76.49c-8.33,8.21-20.61,7.94-28.88-.64-8.65-9-8.39-20.73.66-29.69,7.35-7.28,20.38-6.67,28.15,1.44C650.8,56.63,650.26,70.35,642.22,76.49Z"/><path class="cls-2" d="M486,157l8.37,8.36a5.91,5.91,0,0,1,0,8.36h0a5.91,5.91,0,0,1-8.36,0l-8.37-8.36a5.93,5.93,0,0,1,0-8.36h0A5.91,5.91,0,0,1,486,157Z"/><path class="cls-2" d="M150.81,602.36l8.36-8.36a5.91,5.91,0,0,1,8.36,0h0a5.91,5.91,0,0,1,0,8.36l-8.36,8.36a5.91,5.91,0,0,1-8.36,0h0A5.91,5.91,0,0,1,150.81,602.36Z"/></pattern></defs><title>trama_azul_1</title><g id="Capa_2" data-name="Capa 2"><g id="Capa_1-2" data-name="Capa 1"><rect class="cls-3" width="1065.19" height="1006.98"/></g></g></svg>