<svg xmlns="http://www.w3.org/2000/svg" width="13.426" height="10.89" viewBox="0 0 13.426 10.89">
  <path id="Trazado_39" data-name="Trazado 39" d="M42.252,12.89a7.762,7.762,0,0,0,7.832-7.832V4.685a6.063,6.063,0,0,0,1.343-1.417,6.192,6.192,0,0,1-1.566.448,2.9,2.9,0,0,0,1.193-1.492,6.842,6.842,0,0,1-1.716.671A2.664,2.664,0,0,0,47.324,2a2.8,2.8,0,0,0-2.76,2.76,1.454,1.454,0,0,0,.075.6A7.712,7.712,0,0,1,38.97,2.448,2.857,2.857,0,0,0,38.6,3.865,2.964,2.964,0,0,0,39.79,6.177,2.515,2.515,0,0,1,38.522,5.8h0A2.726,2.726,0,0,0,40.76,8.489a2.3,2.3,0,0,1-.746.075,1.269,1.269,0,0,1-.522-.075A2.826,2.826,0,0,0,42.1,10.429a5.632,5.632,0,0,1-3.431,1.193A2.065,2.065,0,0,1,38,11.548a7.04,7.04,0,0,0,4.252,1.343" transform="translate(-38 -2)" fill="#f2f2f2" fill-rule="evenodd"/>
</svg>
